# xmcd
#
# Track frame offsets:
#	150
#	9719
#	20745
#	28866
#	37193
#	47985
#	57885
#	67531
#	77939
#	84725
#	93591
#	104315
#	115479
#	124419
#	135775
#	145129
#
# Disc length: 2046 seconds
#
# Revision: 0
# Processed by: cddbd v1.5.2PL0 Copyright (c) Steve Scherf et al.
# Submitted via: EasyCDDAExtractor 2010.6.0.0
#
DISCID=df07fc10
DTITLE=Johnny Cash - The Collection. CD 2
DYEAR=2010
DGENRE=Gospel, R&R, Country
TTITLE0=Rock Island Line
TTITLE1=Cry, Cry, Cry
TTITLE2=Guess Things Happen That Way
TTITLE3=Always Alone
TTITLE4=Fools Hall Of Fame
TTITLE5=I Could Never Be Ashamed Of You 
TTITLE6=It's Just About Time
TTITLE7=Frankie's Man, Johnny
TTITLE8=You're My Baby
TTITLE9=One More Ride
TTITLE10=The Old Account
TTITLE11=Clementine
TTITLE12=Lead Me Gently Home
TTITLE13=I Saw A Man
TTITLE14=Luther Played The Boogie (Luther's Boogie)
TTITLE15=Swing Low, Sweet Chariot
EXTD=
EXTT0=
EXTT1=
EXTT2=
EXTT3=
EXTT4=
EXTT5=
EXTT6=
EXTT7=
EXTT8=
EXTT9=
EXTT10=
EXTT11=
EXTT12=
EXTT13=
EXTT14=
EXTT15=
PLAYORDER=
